<?xml version="1.0" encoding="utf-8"?>
<!-- Generator: Adobe Illustrator 27.9.0, SVG Export Plug-In . SVG Version: 6.00 Build 0)  -->
<svg version="1.1" id="Layer_1" xmlns="http://www.w3.org/2000/svg" xmlns:xlink="http://www.w3.org/1999/xlink" x="0px" y="0px"
	 viewBox="0 0 512 512" style="enable-background:new 0 0 512 512;" xml:space="preserve">
<style type="text/css">
	.st0{fill:#FFFFFF;}
</style>
<rect width="512" height="512"/>
<path class="st0" d="M6.7,107.9l0.8-0.3c0.7,2.9,0.3,4.8-1.4,5.7l-0.8,0.3l-0.8-2.7L6.7,107.9z M19.2,483.4l1.1,1.1l5.4-1.1h5.4
	l6.3,1.1l1.1-1.1l7.6,1.1h7.6v2.2h-1.1L29,488.8l-10.9-1.1l-1.1,1.1h-1.1l-6.5-1.1v-1.1C9.4,485.2,12.7,484.1,19.2,483.4z M191,39.9
	h0.8l0.3,0.8c-1.3,5.1-5.4,13.3-12.3,24.8l-0.8,8.2l4.1,4.6l-4.6,4.6l0.3,1.1l2.5,1.9c-1.3,0.4-1.5,3.5-0.8,9.3l-0.5,1.1l0.5,2.7
	l3,8.4l-3.8,7.4c3.8,8.5,8,15.3,12.5,20.4l1.6,11.4c1.8-0.4,3.5,2.9,5.2,9.8c0.7,4.7,0.4,7.3-1.1,7.6l-32.9,7.9
	c-8.9,0.2-14.1-2.9-15.5-9.3l-14.4-12.8l-9.3-3.3l-6,2.5c-3.8,0.5-7.1,0.1-9.8-1.4l-5.4,1.4l-13.9,16.9c-4.9,8.7-6.4,17.2-4.4,25.6
	l1.6,6c2.7,11.4,17.9,22.4,45.5,32.9c19.2,5.1,34.1,10.5,44.7,16.3c13.2,11.1,24.5,17.2,33.8,18.5l22.6,15.5
	c2.7-0.7,7.4,7.8,13.9,25.6l0.3,1.1c9.1,38.1,5.8,65.3-9.8,81.4c-3.5,9.8-8.7,15.6-15.8,17.4c-17.6,10.9-28.1,16.7-31.6,17.4h-3.8
	l-12.3,4.9l-16.9,0.3l-7.9,2.7c-13.3-1.3-24.8-3.4-34.6-6.3c-8.5-4.5-14.7-9.3-18.5-14.4c-1.1,0.2-3.8-1.9-8.2-6.3
	c-3.1,0.7-6.7-2.4-10.9-9.3c-0.2-1.5-2.1-2.8-5.7-4.1c-1.3-5.4-3.3-8.6-6-9.5c-0.4-1.6-2.4-3.5-6-5.7l-3.8-7.4
	c2.2-7.1,8.3-11.9,18.5-14.4l20.4-4.9c4,0.7,7.5,3.5,10.6,8.4c7.4,4.7,11.9,10.1,13.3,16.1c15.6,11.8,28.1,16.6,37.6,14.4
	c8.3-2,14.6-4.7,18.8-8.2c2.2-0.4,6.3-4.4,12.3-12c4.9-3.1,6.9-6.6,6-10.6c0.7-0.2,1.6-4.3,2.7-12.3c1.4-0.4,2-3.3,1.6-8.7l1.9-0.5
	l-1.1-4.1c-1.6-1.3-3.3-4-4.9-8.2l-0.5-6.3c-3.3-0.7-5.4-2.9-6.3-6.5c-17.6-14.7-28.8-21.8-33.5-21.2l-30.8-9.8
	c-1.6,0.4-5.3-0.5-10.9-2.7c-3.5-2-7.1-2.6-10.9-1.9c-14.3-4.5-23.1-9.4-26.4-14.7c-4.5-2.2-11.3-6.6-20.1-13.3
	c-2.5,0.4-6.9-3.2-13.1-10.6v-4.6L41,228c-5.4-7.1-8.4-11.9-9-14.4l-4.6-23.4c0.9-0.2,1.5-4.3,1.9-12.3l3.8-18.2
	c7.6-10.5,11.3-16.5,10.9-18c12.3-15.2,25.6-25.7,39.8-31.3c24.1-5.8,37.3-11.7,39.5-17.7c4.9-6.7,8.1-10.3,9.5-10.6
	c3.1-0.7,4.7-0.5,4.9,0.8c4.7-2.5,9.7-6.8,15-12.8c24-10.9,35.2-19.3,33.8-25.3L191,39.9z M36.3,265.6v2.2l-3.3,1.1l-1.1-1.1v-1.1
	l1.1-1.1H36.3z M58.1,204.6l2.2,2.2v1.1l-2.2-2.2V204.6z M84.3,480.1c0.7,2.9,2.2,4.4,4.4,4.4v1.1l-2.2,2.2h-1.1l-5.4-1.1l-7.6,1.1
	l-13.1-1.1v-2.2h6.5l9.8,1.1C79,484.8,81.9,483,84.3,480.1z M63.8,299.9l0.3,0.8c0.7,2.9,0.3,4.8-1.4,5.7l-1.1-0.5l-0.3-0.8
	C61.9,302.1,62.8,300.4,63.8,299.9z M65.5,65.5l0.8-0.3l0.3,1.1l-2.2,3l-0.8,0.3L65.5,65.5z M70.7,399l2.2,1.4l0.8,2.5l-2.2-1.1
	L70.7,399z M73.6,402.8c0.9-0.2,3.6,2.2,8.2,7.1l0.8,2.7l-1.1,0.3C79.4,412.3,76.7,409,73.6,402.8z M82.1,376.7l1.1,1.1v1.1
	l-1.1,1.1h-2.2v-1.1L82.1,376.7z M85.4,416.4l4.6-0.3l2.7-0.5c2.5,5.4,9.2,10.8,19.9,16.1l-0.8,0.3
	C108.3,432.8,99.5,427.7,85.4,416.4z M89.7,246H93l-2.2,2.2h-1.1V246z M90.8,483.4h6.5v2.2h-6.5V483.4z M104.4,299.1l1.1,0.8
	l0.5,1.6l-2.7,0.5l-0.3-0.8L104.4,299.1z M112.6,481.2l33.8,1.1v1.1l-2.2,2.2h-20.7v2.2h-7.6l-4.4-2.2l-4.4,1.1l-3.3-1.1v-2.2
	L112.6,481.2z M106,295h1.1l2.2,2.2v1.1h-1.1l-2.2-2.2V295z M111.5,305.9h1.1c1.6,0,2.7,1.8,3.3,5.4h-2.2L111.5,305.9z M116.7,432.5
	h0.8l2.2,1.1l-2.7,0.8L116.7,432.5z M122.9,222l0.8-0.3c3.6-0.5,5.6-0.1,6,1.4l-3.3,2.5L122.9,222z M129.7,223.1l1.9-0.5
	c2.5,0.2,4.6,1.2,6.3,3l0.3,0.8l-1.9,0.5L129.7,223.1z M134.4,223.1h2.2v1.1l-2.2,2.2h-2.2v-1.1L134.4,223.1z M162.7,167.6h2.2
	l1.1,4.4l-3.3-3.3V167.6z M165.9,239.4l1.1,1.1v1.1l-1.1,1.1h-2.2v-1.1L165.9,239.4z M206.2,480.1l5.4,1.1v2.2h-7.6
	c-16.7,0-25,1.1-25,3.3l-5.4-1.1H167v-2.2l9.8-2.2h25L206.2,480.1z M194.5,31.7h0.8l0.5,1.6l-2.2,3.3l-0.8,0.3l-0.3-1.1L194.5,31.7z
	 M232.4,480.1l3.3,2.2l2.2-2.2l2.2,2.2h5.4v2.2c-6.2,0-10.9,0.7-14.2,2.2c-3.1-1.5-8.9-2.2-17.4-2.2v-1.1l2.2-2.2h3.3l1.1,1.1
	l1.1-1.1h1.1l2.2,2.2L232.4,480.1z M244.4,279.2l5.7,3.3l0.3,1.6l-1.9,3.3L244.4,279.2z M250.9,481.2h4.4v2.2h-4.4V481.2z
	 M277,482.3v3.3h-5.4l-2.2-2.2l1.1-1.1H277z"/>
<path class="st0" d="M125.9,47.5l6.8,3.7l0.6,2.1l-3.2,0.7l-4-5.4L125.9,47.5z M274.1,219.6l1-0.4l1.1,4.2l-1,0.4l-2.7-1.5
	L274.1,219.6z M314.8,43.3l2.1-0.6l1,3.1l23.9-7.1c1.5,1.2,7.3,0.6,17.6-1.6l2.9,1.4l5-1.5l0.3-3.6c22.6-2.8,34.6-1.7,36,3.2
	c13.3,7.1,26.3,13.2,39.2,18.1c5.4,5.5,9.5,11.8,12.5,19c6.3,1,11.4,8.2,15.3,21.7l2.7,9.5c8.9,31,5.9,54.3-9.2,69.6l-12.9,21.7
	c-5.5,7.7-11.3,12.5-17.4,14.2l-7.2,3.2l-1.2-0.7l0.6,2.1l-5.7,0.5l-6.1,1.6l-0.8,1.5l-1.1,0.2l-1.2-0.7l-1.5,2.7l-2.1,0.6l-0.4-1
	l1-1.3l-0.4-1l-2.1,0.6l-12.7,7l-0.2-1.1l-10.9,5.6l-1.3-1l-4.2,1.1l0.7,6.8l-2.1,0.6l0.4-6.9l-0.8,1.5l-3.2,0.7l-4.3,0.3l-8.9,4.8
	l-1.3-1l-15.7,4.7l1.6,5.2l2.2,3.8l0,3.5l10.5-3.1l0.6-1.4l1.5,0.8l12.4-3.6l0.8,2l-6.6,5.4l-0.6-2.1l-8.4,2.5l-0.7,1.2l-6.8-0.2
	l1.4,0.6l0.6,2.1l-1,0.4l-3.6-0.3l3.7,12.6c-1.4,5.3-1.6,9.9-0.6,13.8l8.4,24.8c1.6-0.4,3.1,1,4.7,4.3c-1.4,0.4-1.9,3.9-1.5,10.6
	l5.7,11.8l-1,0.4l-1.2-0.7l-1.1,0.2l-0.8,1.5l3,10.2c0.4,1.4-1.8,4.3-6.4,8.8c1.5,5.1,0.4,11.4-3.4,19l-1,0.4
	c-2.5,0.6-5.7-3.8-9.5-13.2c-4.9,1.4-10.2-7.6-15.8-27.1l-5.5-2.7l-2.7-9.5c-2.3,0.6-7.1-10.9-14.4-34.4l1.3-2.6l-2.3-8.5
	l-15.2-44.4l-4.7-15.7l-4.3-11.2l-1.4-8.5l-1.3-1l-0.4-1l1.3-7l-4.4-15.8l-0.3-4.3l-1.3-1l-0.4-5.4l-5.8-16.4l-1.5-8.8l-3.6-4.4
	l1-0.4l-1.2-0.7l-0.4-1l0.6-1.4l-3.8-5.8l-1-3.1l-0.2-9l-6.5-21.7l-6.9-16.3l-1.1-4.2l1.3-2.6l29.5-8.5l16.5-1.4
	c-0.7-2.7-0.4-4.3,1-4.8l1.1-0.2l0.2,1.1l-0.1,3.3l4.8,1c7-2.1,10.3-3.8,9.9-5.2l1.3,1l3.1-1c-0.3-3,1.8-5.2,6.2-6.4L314.8,43.3z
	 M230.2,32l1-0.4l0.6,2.1c-1.4,0.4-1.8,1.6-1.1,3.7l-0.8,1.5l-1.1,0.2l-2.4-1.7l-0.3-0.8L230.2,32z M218,1.3l1.9-0.5l1,3.1l-2.1,0.6
	L218,1.3z M235,29.4l1.4,0.6l1.1-0.2l0.6-1.4l0.4,1l-1.5,2.7l-3.5,0L235,29.4z M365.7,340.1l1.3,1l0.4,1l-1.5,2.7l-1.3-1l-0.4-1
	L365.7,340.1z M371.6,353.3l1.4,4.1l-2.1,0.6l-0.6-2.1L371.6,353.3z M349.4,283.8l2.1-0.6c1,3.3,10.1,10.1,27.4,20.3l1.1-0.2
	l0.6,2.1l-1.5-0.8l-1,0.4l0.4,1l9.7,2.8l0.8,2l-1,0.4l-14.1-5.1l-0.6,1.4l-2.1,0.6c-1.4-4.9-8.5-12.3-21.1-22.2L349.4,283.8z
	 M247.6,22.2l2.1-0.6l3.8,5.8l-2.3,3l-1.1,0.2l-0.6-2.1l2.1-0.6l-0.8-2l-1,0.4l-0.7,1.2l-1,0.4l-1.5-0.8l-0.2-1.1
	C247.9,25.5,248.3,24.3,247.6,22.2z M402.7,401.2l2.1-0.6l3.5,3.6l0.2,1.1l0.3,4.3l1.3,1l0.4,1l-1,1.3l0.4,1l2,2.7l0.7,6.8l-2.1,0.6
	l-2.1-7.4l-3.1-2.6l1.5-2.7L402.7,401.2z M389.5,368.3l5.4-1.3l0.8,2l-1.5,2.7l-1.1,0.2l-2.7-1.5L389.5,368.3z M399.4,389.6l2.1-0.6
	l1.7,6.4l-1.9,0.5L399.4,389.6z M250.2,14.7l2.9-0.9l4.2,2.4l0.4,1l-1.5,2.7l-1.5-0.8l-1,0.4l-2.7,2l-3.3-3.7L250.2,14.7z
	 M397.4,374.5l3.2,11.4l-2.1,0.6l-3.9-10.2l0.7-1.2L397.4,374.5z M370.7,294.8l2.1-0.6l2,6.3l2.3,4.1l1,7.5l5.5,18.6l4.3,11.2
	l0.1,4.7l-1.1,0.2c-1.4,0.4-3.2-1.7-5.3-6.4l-4.3-23.5l-5.5-14.2L370.7,294.8z M386.5,349.3l2.1-0.6l3.1,7l4.5,14.6l-2.1,0.6
	l-4.7-12.2L386.5,349.3z M252.9,20.6L255,20l2.1,3l-1.1,0.2l-2.7-1.5L252.9,20.6z M248.3-6.3c2.3,2.4,4.2,6,5.6,10.9l-3.1,1
	c-1.8,0.5-3.7-2.3-5.8-8.5L248.3-6.3z M290.6,107.3l1.1-0.2l3.3,0.1l0.6,2.1l-1.1,0.2l-3.3-0.1L290.6,107.3z M349.5,85.3l-10.5,3.1
	c-17.3,5.1-25.8,8.4-25.4,9.8l-1.5-0.8l-7.1,2l0.6,2.1l-2.1,0.6l-0.6-2.1l-3.1,1l3.1,10.5l-2.1,0.6l-1.5,2.7l2.1,7.4l5.8,4.1l2,7.1
	l1.7,9.9l2,2.7l0.1,4.7l4.3,11.2l2.1,7.4l0.9,6.4l2,2.7l-0.3,3.6l5.6,10.9l-1,1.3l0.6,2.1c5.6-1.7,8.7-1.5,9.4,0.6l0.7-1.2l5.7-0.5
	l2.7-2l0.4,1l2.7-2l-1.2-0.7l-0.4-1l2.1-0.6l1,3.1l1-0.4l-0.6-2.1l1.1-0.2l4.7,0.7l2.8-1.7l0.4,1l9-4l-1.4-0.6l-0.6-2.1l2.1-0.6
	l0.6,2.1l2.1-0.6l-0.6-2.1l1-0.4l1.3,1l1-0.4l3-2.1l3.4,0.4l-0.7-3.2l2-0.8l0.2,1.1l-0.6,1.4l0.2,1.1l1-0.4l5.8-3.8l2.7,1.5l2.1-0.6
	l3.7-2.4l4.7-0.1c16.8-4.9,26.5-17.2,29.1-36.9l-2-14.2l-3.6-12.4c-5.3-18.2-19.7-30.4-43.4-36.4L358.4,84l-1.5-0.8l-0.4-1
	L349.5,85.3z M254.1,5.7l5.5,2.7l-5.2,1.6L254,9L254.1,5.7z M360,257.1l5.8,8.5l-0.8,1.5l3.1,7l0.6,2.1l2.6,12.8l-2,0.8l-4-10.4
	l-2.4-8.1l-0.5-5.7l-2.7-1.5l-1.1-4.2L360,257.1z M258.2,3.4l4.1-1.4c2.2,0.1,3.8,1.9,4.8,5.4l-1,0.4l-1.4-0.6l-1.1,0.2l0.4,1
	c0.7,2.1,3.8,2.3,9.4,0.6l-2.4,4.2l-1.2-0.7l-1.1,0.2c0.8,2.8-1.3,4.9-6.2,6.4l-0.2-1.1l2.7-6.4l-0.4-1c-2.6,1.4-3.5,3.2-2.8,5.3
	l-1,0.4l-2.7-1.5l-0.8-2l5.1-2.7l-4-5.4L258.2,3.4z M301.3,114.1l4.2-1.1l-1,4.8l-2.1,0.6L301.3,114.1z M343.4,204.2l1-0.4l2.7,1.5
	l1,3.1l-0.8,1.5l1.4,0.6l0.4,1l-1.5,2.7l5.3,6.4l-1.1,3.7l2.7,1.5l-1.5,2.7l1.6,5.2l-2.1,0.6c-1.8-5.8-3.8-10-6.1-12.8
	C346.6,218.1,345.7,212.3,343.4,204.2z M255.1-2.7l2.7,1.5l0.4,1l-2.1,0.6L255.1-2.7z M289.6,80.3l2.9-0.9l0.8,2l-3.1,1L289.6,80.3z
	 M354.9,239.5l2.1-0.6l1,4l-2,0.8L354.9,239.5z M336.5,172.9l0.2,1.1l0,3.5L334,176l-0.6,1.4l-2.1,0.6
	C330.8,176.8,332.5,175.1,336.5,172.9z M315.6,135.3l6.7-1l0.7,3.2l-7.5,1l-0.4-1l1-1.3L315.6,135.3z M256.2-10.8l2.6,1.3l0.4,1
	l-2,0.8L256.2-10.8z M311.9,98.9l1.9-0.5c1.1,3.1,2.4,5.3,4.1,6.5l3.7,12.6l7.2,20.6l-2.1,0.6l16.8,54l2.1,3l0.4,5.4l-2.1,0.6
	l-2-7.1c-4.8-16.1-8.2-23.8-10.1-23.2l-4.5-22.6l-4.7-8.7l-3.2-15.1l-2.1-7.4l-2,0.8L313,111l1-4.8l-2.5-4L311.9,98.9z M306.6,104.6
	l1.1-0.2l2.3,4.9l0.8-1.5l1.1-0.2l1.2,0.7l5.1-2.7l3.1-1l0.2,1.1c0.4,1.6-2.4,3.6-8.4,6.1c-2.9,0-4.7-1-5.4-3.1L306.6,104.6z
	 M332.4,158.4c1.5-0.2,3.3,1.1,5.4,4l-1,0.4l-1.3-1l-1,0.4l-2.7,2l-1.5-0.8l-0.4-1l1-1.3l1-0.4l1.3,1L332.4,158.4z M264.1,0.5
	l1.4,0.6l1.1-0.2l0.6-1.4l1.1-0.2l0.2,1.1L267.2,3l-2.7-1.5L264.1,0.5z M345.6,180.7l2.1-0.6l0.5,1.9l0.7-1.2l1-0.4
	c4.2-1.1,7.1,0.7,8.5,5.7c-1.6,0.5-3.1-1-4.7-4.3c-2.2,0.5-2.9,1.8-2.2,3.9l-2.1,0.6l-1-3.1l-5.4,4l-2.1,0.6l-0.4-1l0.1-3.3l5.7-0.5
	L345.6,180.7z M311.4,113.5l1-0.4l2.2,3.8l-2,0.8L311.4,113.5z M266.6-10.6l2.3,4.1l1,3.1l-5.2,1.6l-2.1-7.4l2.1-0.6l0.6-1.4
	L266.6-10.6z M314.1,119.4l2.1-0.6l7.8,14.8C322.8,133.9,319.5,129.2,314.1,119.4z M341.4,170.4l3.8,5.8c-4-0.3-6.6-1.4-7.6-3.4
	l0.6-1.4L341.4,170.4z M314.2-18.5l1-0.4l3.3,0.1l0.7-1.2c0.7,2.3,3.7,3.3,8.9,3.1l1,3.1c1.1,3.7,0.4,6.5-2.1,8.5l2,2.7
	c-0.3,3.1-1,4.8-2,5.2l-0.2-1.1l-3.7,3.3l-1.4-0.6l-3.8,2.2l-13.8,3l-1,1.3c-2.3-4.7-4.8-7-7.5-6.9L290,7.8l-2.1,0.6l-0.4-1l2.1-0.6
	l-0.2-1.1l-2.7-1.5l-2.1,0.6l1.1,4.2l-4.1-2.1L280.9,8l-2.1,0.6l-1.2-0.7l-1,0.4l0.7,3.2l-2.1,0.6l-0.2-1.1l0.6-1.4l-0.2-1.1
	L273.4,9l-2.6-1.3l-0.4-1c-0.8-2.4,8-8.8,26.4-19l1.7,2.8l6.4-1.7l10.7-2l0.8-1.5l-0.6-2.1l-1.4-0.6L314.2-18.5z M300.4,79.4
	l3.2-0.7l0.4,1l-1.5,2.7l-1.3-1L300.4,79.4z M293,57.7l5.4-1.3l0.9,2.9l-2.6-1.3l-1,1.3l-2.1,0.6L293,57.7z M292.5,52.1l1-0.4
	l2.7,1.5l0.2,1.1l-3.1,1L292.5,52.1z M296.7,54.5l2.1-0.6l2.7,1.5l1,7.5l3.7,12.6c0.4,1.4,1.6,1.8,3.7,1.1l1.2,0.7l0.4,1
	c-2.5,1.6-3.5,3.5-3,5.6l-1.1,0.2l-2.7-1.5l-0.2-1.1l-0.4-5.4L297.7,62l-0.3-4.3L296.7,54.5z M271-10.6l3.1-1l2.7,1.5l0.6,2.1
	L274-4.8l-1,0.4L270-5.8l-0.6-2.1L271-10.6z M308.2,73.9l1-0.4l0.6,2.1l-3.7,3.3l-0.4-1L308.2,73.9z M326.8,119.5l1.4,0.6l0.2,1.1
	l-0.6,1.4l-1.1,0.2l-1.4-0.6l-0.2-1.1l0.6-1.4L326.8,119.5z M278.4,3.1l-0.6,1.4l0.6,2.1l2.7-2L278.4,3.1z M283.2,8.5l1-0.4
	c1.2-0.3,3.2,2.5,5.8,8.5l-0.6,1.4l2.6,4.8l1.6,5.2l0.7,6.8l1.4,0.6l1,7.5l2.1,7.4l-2.1,0.6l-0.4-1l-8.6-22.4l-2-10.7l-1.5-0.8
	l-0.2-1.1L283.2,8.5z M367.4,150.6l0.3,0.8c0.5,2.2-3,4.4-10.5,6.6l0.6,2.1l-1.5-0.8l-3.1,1l-0.6,1.4l-1.5-0.8l-1,0.4L344,164
	l-1.4-0.6l-0.2-1.1l1.5-2.7l1-0.4l3.7,1.1L367.4,150.6z M277.4-7.9l1.1-0.2l2.6,1.3l-2.9,0.9L277.4-7.9z M445,387.4l2.1-0.6l0.4,1
	c1.1,3.7,0.4,6.5-2.1,8.5l-1.2-0.7L445,387.4z M328.8,99.3l0.6,2.1l-4.1,2.3l-0.6-2.1L328.8,99.3z M282.1-11.6l1.1-0.2l4.7,0.7
	l0.4,1l-3.6,3.5l-1.1,0.2L282.1-11.6z M290-0.1l0.6,2.1l5.8-3l-1.2-0.7l-0.4-1L290-0.1z M309.8,40.6c0.4,1.4,1.6,1.8,3.7,1.1
	l0.2,1.1L313,44l0.2,1.1l5.7-0.5l5.4-1.3l0.6,2.1l-4.9,2.3l-10,0.8l-1.6-5.2L309.8,40.6z M365.1,173.9l1-0.4l0.2,1.1l-1.3,2.6
	l-1,0.4l-0.4-1L365.1,173.9z M357.8,160.1l1.2,0.7l1-1.3l1-0.4l2.7,1.5l-5.2,1.6L357.8,160.1z M342.1,109.5c3.2,0.1,4.9,0.7,5.1,1.7
	l-2.7,2l1.3,1l0.3,0.8l-0.8,1.5l-2.1,0.6l-3.9-2.2c1.4-0.4,1.8-1.6,1.1-3.7l0.6-1.4L342.1,109.5z M289-19.1l1-0.4l5.2,2l-1,1.3
	l-1,0.4l-3.9-2.2L289-19.1z M331.6,77.3l2.1-0.6l-1.5,2.7l-1.9,0.5L331.6,77.3z M305.9,12.2c0.5,1.3,1.8,1.7,3.7,1.1l-1.3,2.6
	l-4.1-2.1l0.7-1.2L305.9,12.2z M343.6,106.8l3.1-1l0.6,2.1l-1.1,0.2L343.6,106.8z M347.3,112.1l1-0.4l2.3,4.1l-2.1,0.6L347.3,112.1z
	 M423.3,296.3l1.1-0.2c5.3,2.9,8.7,4.2,10.1,3.8l0.6,2.1l-1,0.4L423.3,296.3z M324.2,51.2l3.1-1l0.6,2.1l-3.1,1L324.2,51.2z
	 M401,231.6l5.7-0.5l3.1-1l0.6,2.1l-7.4,2.1l-2.7-1.5L401,231.6z M350,101.5l1.4,0.6l0.6,2.1l-3.1,1l-0.4-1L350,101.5z M360,112.2
	l0.6,2.1l-4.3,4.7l-1.1,0.2l-0.6-2.1C354.7,114.8,356.5,113.2,360,112.2z M307.5-2l0.4,4.5L310,2l1.3-2.6L307.5-2z M369.4,149.8
	l5.2-1.6l0.6,2.1l-5.2,1.6L369.4,149.8z M363.1,122.7l2.1-0.6l2.6,1.3c-2.1,0.7-2.9,1.7-2.6,3.1l-2.1,0.6l-2.7-1.5L363.1,122.7z
	 M350.6,95.7l1-0.4l4.7-0.1l0.6,2.1l-2.1,0.6L350.6,95.7z M435.7,300.6c2.3-0.6,6.1,0.6,11.5,3.6c4.9,1.9,9.7,2.8,14.3,2.7l0.5,1.9
	l-4.8,2.6l-1,0.4l-20.4-7.5L435.7,300.6z M305.9-19.5l4.2-1.1l0.2,1.1l-3.8,2.2L305.9-19.5z M322.6,14.2l3.9,2.2l0.4,1l-5.2,1.6
	l-0.6-2.1L322.6,14.2z M388,139.8l3.6,0.3l0.6,2.1l-1.1,0.2l-14.2,6.4l-0.6-2.1C384.6,143.9,388.5,141.6,388,139.8z M388.6,169.3
	l3.1-1l-3.9,5.7l-0.6-2.1L388.6,169.3z M436.3,290.4l1-0.4c11.2-0.9,17.2,0,17.9,2.7l0.2,1.1c-2.3-1.2-8.4-1.7-18.5-1.3L436.3,290.4
	z M323.2,8.4l2-0.8l0.6,2.1l-1.4,2.9l-1.1,0.2L323.2,8.4z M354.7,82l5.2-1.6l0.6,2.1l-5.7,0.5L354.7,82z M446.3,297.8
	c14.9-1.8,26.3-1.7,34.2,0.2l0.2,1.1l-9.2-0.9l-5.2,1.6l-2.6,3.1c-8.9-2.1-15.1-2.6-18.6-1.5l-0.3-0.8L446.3,297.8z M330.2,9.7
	l4.1,2.1l-3.1,1l-2.7-1.5l0.7-1.2L330.2,9.7z M415.6,222.7l2.9-0.9l-1.3,2.6l-1,0.4L415.6,222.7z M430,237.7l2.7,1.5l0.6,2.1l-5.8,3
	l-1.3-1l-0.4-1L430,237.7z M344.9,37.2l2.7,1.5l0.4,1l-1.5,2.7l-2.7-1.5l-0.4-1L344.9,37.2z M473.7,318.1l10.5-3.1l0.6,2.1
	l-10.5,3.1L473.7,318.1z M402.3,134.6l3.2-0.7l1,3.1l-3.4-0.4L402.3,134.6z M447.4,238.5l1-0.4l3.9,2.2l0.4,1l-1,0.4l-4.1-2.1
	L447.4,238.5z M453.8,241.2l2-0.8c6.5,1.5,9.9,2.8,10.2,4.1l-1.1,0.2c-6.7,0.4-10.2,0-10.5-1.3L453.8,241.2z M441.8,208.2l2.1-0.6
	l2.1,3l-3.2,0.7L441.8,208.2z M457.5,246.7l1.1-0.2l5.7-0.5l0.2,1.1l-4.2,1.1L457.5,246.7z M500.9,321.4c0.3,1.8-2.1,4.1-7.2,6.8
	l-2.1,0.6l-0.6-2.1l1-0.4l1.3,1l1-0.4C493.8,325.1,496.1,323.3,500.9,321.4z M447.5,207.9l1-0.4l4.8,1l-0.7,1.2l0.2,1.1l-4.4,0
	L447.5,207.9z M500.9,329.3l3.1-1l1.3,1l0.8-1.5l1.9-0.5l0.8,2l-7.4,2.1L500.9,329.3z M458,196.8l1.2,0.7l0.4,1l-0.8,1.5l-1.3-1
	l-1,0.4l-4.3,4.7l-1.1,0.2l-0.6-2.1c-0.7-2.1,1.7-4.2,7.1-6.4L458,196.8z M454.2,203.4l2.1-0.6l2.7,1.5l1.1,4.2l0.6-1.4l1.1-0.2
	l0.4,1l-1.5,2.7l-3.1,1l-2.7-5.1l1.1-0.2l-1.3-1L454.2,203.4z M507.9,310.3l1-0.4l-5.2,9.5l-1,0.4L507.9,310.3z M478.6,248.7l1-0.4
	l3.5,0l0.6,2.1l-1,0.4l-3.5,0L478.6,248.7z M461.9,199.1l2.7,1.5l-2.1,0.6l0.8,2c2.1-0.7,3.3-0.3,3.7,1.1l0.2,1.1l-1,0.4
	c-3.1-0.3-4.7-1-5-2.1l-0.8-2L461.9,199.1z M511.2,326.3l7.4-2.1l0.6,2.1l-7.1,2L511.2,326.3z M478.7,245.2l2.1-0.6l9.3,4.1
	l-1.1,0.2l-9.8-1.6L478.7,245.2z M519,317.2c0.5,1.7-2.3,4.1-8.3,6.9L510,322L519,317.2z M475.4,237.1l1-0.4l8.7,3.2l0.8,2l-1,0.4
	L475.4,237.1z M531.7,342l3.1-1l2.7,1.5l-5.2,1.6L531.7,342z M489.7,212.4l14.5-4.1l-0.6,1.4l0.4,1l8.4,5.4l0.7,3.2l-1,0.4
	l-14.3,1.7l0.4,1c0.8,2.8,0.1,4.6-2,5.2c-3.1-0.3-4.7-1-5-2.1l0.7-1.2l-5.4-7.5l-0.8-2l2-0.8c0.9,2.8,2.5,3.9,4.6,3.4l-0.6-2.1
	L489.7,212.4z M508.1,260.5l8.4,5.4l0.2,1.1l-1,0.4l-7-4.8L508.1,260.5z M542.1,342.2l10.1-0.6l0.6,2.1l-1,0.4l-9,0.2L542.1,342.2z
	 M536.4,318.9l3.2-0.7l0.6,2.1l-3.6-0.3L536.4,318.9z M516.1,233.1l0.2,1.1l-3.3,3.4l-1.5-0.8l-0.2-1.1l0.7-1.2L516.1,233.1z
	 M531.8,263.7l2.6,1.3l-4.1,1.4L531.8,263.7z M566.6,325.1l1-0.4l2.7,1.5l-0.7,1.2l-4.1,1.4l-0.4-1L566.6,325.1z M555.5,255.5l7.1-2
	c3.9-1,7.7,0.2,11.5,3.6L571,266l-2.8,1.7l-0.8-2l-3.3,3.4c-0.5-1.3-1.8-1.7-3.7-1.1l0.6-1.4l-0.4-1l-3.1,1l-3.8,2.2
	c-3.5-0.5-5.7-1.4-6.4-2.7l-0.4-1c-0.5-2.2,2-4,7.4-5.7C553.7,257.4,554.2,256.1,555.5,255.5z M569.1,314.1l0.8-0.3
	c3.5,2.9,7.2,3.7,11,2.6l0.6,2.1l-2.1,0.6l4,9c-4.4-2.1-7.2-5.1-8.4-8.9l-0.6,1.4l-1,0.4L569.1,314.1z M475.5,73.8l1.4,0.6l0.2,1.1
	l-3.4,3.2l-0.4-1L475.5,73.8z M549.9,264l0.6,2.1l3.2-0.7l-0.6-2.1L549.9,264z M560.5,257.6l-1.5,2.7l1.4,4.1l3.3,0.1
	c-0.8-2.8,0.8-5.1,4.8-7l-0.6-2.1l-1,0.4l-3.7,3.3L560.5,257.6z M484.4,73.4l3.1-1l0.6,2.1l-3.1,1L484.4,73.4z M540.6,193.1l1.1-0.2
	l2.4,3.7l-2.1,0.6L540.6,193.1z M486.4,44.4l0.2,1.1l-1.4,2.9l-0.2-1.1L486.4,44.4z M488.1,50.7l1.1-0.2l2.7,1.5l-1.1,0.2
	L488.1,50.7z M597.4,283.2l1.1-0.2l0.6,2.1c0.4,1.6-1,3.1-4.4,4.4l-0.2-1.1L597.4,283.2z M600,288.2l2-0.8l1,3.1l-2.1,0.6L600,288.2
	z M602.6,281.6l1.1-0.2l0.6,2.1l-1.5,2.7l-1.3-1l-0.4-1L602.6,281.6z M612.7,304.8l0.4,1l-1.5,2.7l-0.2-1.1L612.7,304.8z
	 M597.5,271.9l2.1-0.6l1.3,3.9l-2.6-1.3L597.5,271.9z M607.9,295.9l2.1-0.6l1.1,4.2l-2.1,0.6L607.9,295.9z M621.9,328.1l2.1-0.6
	l1.7,6.4l-2.1,0.6L621.9,328.1z M624.7,318.4l0.6,2.1l-1.5,2.7l-2.1,0.6l-2.7-1.5l-0.2-1.1L624.7,318.4z M631,348.2l2.1-0.6l0.4,1
	l-1.5,2.7l-1,0.4L631,348.2z M628.9,332.9l0.6,2.1c-1.3,0.5-1.7,1.8-1.1,3.7l-2,0.8l-0.4-1C625.9,336.2,626.9,334.3,628.9,332.9z
	 M594.8,258.9l2.1-0.6l1,3.1l-2.1,0.6L594.8,258.9z M614.7,307.5l1.1-0.2l5.7-0.5l0.6,2.1C617.5,309.4,615.1,309,614.7,307.5z
	 M627.9,325.4l1.2,0.7l0.4,1l-1.5,2.7l-2,0.8l-0.2-1.1L627.9,325.4z M630.6,327l3.1-1l2,2.7l-3.1,1l-0.6-2.1l-1,0.4
	c0.5,2.2,0,3.4-1.4,3.8l-0.6-2.1L630.6,327z M615.9,233.5l0.4,1l0.7-1.2l6.3-2c1.4-0.4,3.5,1.7,6.4,6.2l-5.2,6l-4.3-3.3l0.6-1.4
	l-0.2-1.1l-5.8-0.6c2.4,3.9,4.7,5.5,7,4.8l0.6,2.1l-3.1,1l3.7,4.7l-10.5-4.8l-5.4,1.3c0.7,2.1-0.4,3.6-3.2,4.5l-1.5,2.7l-1.9,0.5
	l-0.8-2l-3.1-7l0.8-1.5l11.4-3.2C611.3,236.5,613.7,234.2,615.9,233.5z M623.6,310.7l1.1-0.2l8.9-0.4l3.1-1l0.6,2.1l-1.5,2.7l-2,0.8
	L623.6,310.7z M610,263.6l1.3,1l0.4,1l-1,1.3l-1.9,0.5l-0.4-1L610,263.6z M605.8,257.1l3.1-1l3.9,2.2l-2.3,3l-0.4-1l0.6-1.4
	l-0.2-1.1l-4.1,1.4L605.8,257.1z M613.7,256.8l2.7,1.5l0.2,1.1c0,2.4-1.8,4.1-5.3,5.1C613.4,261.5,614.2,258.9,613.7,256.8z
	 M650.7,346.1l3.1-1l1.4,4.1l-1.4-0.6l-0.7,1.2l-1,0.4l-2.7-1.5L650.7,346.1z M650.5,337l1-0.4l-1,4.8l-3.1,1l-0.6-2.1L650.5,337z
	 M613.4,248.1l1-0.4l2.7,1.5l0.4,1l-1.1,0.2l-2.7-1.5L613.4,248.1z M612.7,241.3l1.7,2.8l1.1-0.2l-0.7-3.2L612.7,241.3z
	 M655.8,316.1l1.1-0.2l0.2,1.1l-0.1,3.3l-3.7-1.1l0.4,1l3.9,2.2l-2.1,0.6c-1.6,0.4-3.1-1-4.7-4.3l1.1-0.2L655.8,316.1z M659.2,332.3
	l2-0.8l-1.2,2.8l-2.1,0.6L659.2,332.3z M660.6,293.2c0.9,3.6,3.4,4.7,7.6,3.4l2.7,1.5l0.8,2l-2.4,4.2l-1.3-1l-1,0.4
	c0.7,2.1,0.3,3.3-1.1,3.7l-9.4-0.6l-2.1,0.6c-1.4,0.4-1.6,2.3-0.6,5.8l-1,0.4l-4.8-4.5c2.2-0.5,3.6-2,4.4-4.4
	c1.7-0.5,3.3-2.1,4.5-4.8l2.9-0.9l-0.2-1.1l-1.4-0.6l-0.2-1.1L660.6,293.2z M619.3,221.6l2.6,1.3l-0.6,1.4l0.2,1.1l2.1-0.6l-1.3,2.6
	l-2.1,0.6l-2-2.7C619.5,224.7,619.9,223.5,619.3,221.6z M668,343.1l3.6,0.3l-1.5,2.7l-2.7-1.5L668,343.1z M653.8,308.9l2.6,1.3
	l0.2,1.1l-2.7-1.5L653.8,308.9z M635,256.3l1.5,0.8l0.2,1.1l-1.3,2.6l-1.5-0.8l-0.4-1L635,256.3z M630.7,240.7l0.2,1.1l-1.5,2.7
	l-1.3-1l-0.4-1l1-1.3L630.7,240.7z M658.7,310.8l1.4,4.1l-2.7-1.5L658.7,310.8z M666.5,333.5l5.7-0.5l0.6,2.1l-5.7,0.5L666.5,333.5z
	 M601.8,149.3l3.2-0.7l3.9,2.2l3-2.1l0.2,1.1l-0.6,1.4l0.2,1.1l1.4,0.6l-5.8,3.8l-1,0.4l-5-2.1l-5.2,1.6l-0.4-1
	C595.9,152.6,598,150.5,601.8,149.3z M637.5,240.9l0.2,1.1l-0.6,1.4l0.2,1.1l5.7,3.9l0.4,1l-1.5,2.7l-2.2-3.8l-1,0.4l0.7,3.2
	l-1.1,0.2l-2.7-1.5C634.6,244.8,635.2,241.6,637.5,240.9z M673.8,315.5l2.1-0.6c0.8,2.8-0.1,5.3-2.5,7.5l0,3.5c-3.1-0.3-4.8-1-5.2-2
	l-0.2-1.1c2.1-0.7,2.8-2,2.1-4.1C673,318,674.2,316.9,673.8,315.5z M664.4,299l5.3,2.8l1-1.3l-0.4-1L664.4,299z M662.9,285.8l1-0.4
	l0.4,1l-0.3,3.6l-2.1,0.6l-0.6-2.1L662.9,285.8z M603.5,139.8l2.1-0.6l0.4,5.4l-1,0.4L603.5,139.8z M646.5,229.3l3.1-1
	c1.4-0.4,2.5,0.8,3.3,3.7l4.8,1l0.4,1l-1.5,2.7c-9.1,0.2-13.9-0.7-14.3-2.7L646.5,229.3z M637.2,220.7l2.1-0.6l0.9,2.9l-2.6-1.3
	L637.2,220.7z M672.4,299c1.2-0.5,2.7,0.9,4.7,4.3l-1.1,0.2l-2.6-1.3L672.4,299z M671.9,274.2l1-0.4l0.6,2.1l-3.7,3.3l-1,0.4
	l-0.6-2.1L671.9,274.2z M657.6,244.1l1.1-0.2l3.9,2.2l0.4,1l-1,4.8l-2.1,0.6l-3.3-3.7l-0.6-2.1L657.6,244.1z M646.3,217l6.7-1
	l-1.5,2.7l-1.4-0.6l-1.3,2.6l-1.5-0.8L646.3,217z M636.9,165.3l0.6,2.1L633,171l-3.1,1l-0.6-2.1L636.9,165.3z M645.6,194.6l2.7,2.4
	l0.4,1l-1,0.4l-3.5,0l-0.2-1.1L645.6,194.6z M639.8,174.7l3.9,2.2l-1,0.4l-2.7-1.5L639.8,174.7z M638.9,163.6l3.1-1l0.6,2.1l-1,0.4
	L638.9,163.6z M687.7,273.9l0.6,2.1l-1.5,2.7l-1.7-2.8l0.7-1.2L687.7,273.9z M664.7,209.5l2-0.8l1.2,0.7l1.1-0.2l1-1.3l0.5,1.9
	l-5.1,2.7L664.7,209.5z M667.4,196l2.1-0.6l0.4,1l-1.4,3.8l0.4,1l0.7-1.2l1-0.4c3.3-0.2,5.9,1,7.9,3.5l0.5,1.9l-2.1,0.6l-0.5-1.9
	l-1.5,2.7l0.3,0.8c3-0.4,4.7,0.2,5.2,2l-1,0.4c-3.8,0.2-6.1-0.7-6.6-2.6l0.3-3.6l-9.4-0.6l-0.2-1.1l1.3-2.6
	C666.9,198.5,667.8,197.5,667.4,196z M696.4,272.7l2,2.7l-3.7,3.3l-1.1-4.2L696.4,272.7z M652.8,165.3l2.7,1.5l0.4,1l-2.7-1.5
	L652.8,165.3z M656.9,167.4l1,3.1l-2.1,0.6l-0.4-1L656.9,167.4z M676.4,211.5l2.7,1.5l0.4,1l-2.7-1.5L676.4,211.5z M650,124l3.9,2.2
	l0.8,2l-4.1-2.1L650,124z"/>
</svg>
